HIERARCHY
ROOT Hips
{
	OFFSET -0.001795 -0.223333 0.028219
	CHANNELS 6 Xposition Yposition Zposition Zrotation Yrotation Xrotation 
	JOINT LeftUpLeg
	{
		OFFSET 0.069520 -0.091406 -0.006815
		CHANNELS 3 Zrotation Yrotation Xrotation
		JOINT LeftLeg
		{
			OFFSET 0.034277 -0.375199 -0.004496
			CHANNELS 3 Zrotation Yrotation Xrotation
			JOINT LeftFoot
			{
				OFFSET -0.013596 -0.397961 -0.043693
				CHANNELS 3 Zrotation Yrotation Xrotation
				JOINT LeftToe
				{
					OFFSET 0.026358 -0.055791 0.119288
					CHANNELS 3 Zrotation Yrotation Xrotation
					End Site
					{
						OFFSET 0.000000 0.000000 0.000000
					}
				}
			}
		}
	}
	JOINT RightUpLeg
	{
		OFFSET -0.067670 -0.090522 -0.004320
		CHANNELS 3 Zrotation Yrotation Xrotation
		JOINT RightLeg
		{
			OFFSET -0.038290 -0.382569 -0.008850
			CHANNELS 3 Zrotation Yrotation Xrotation
			JOINT RightFoot
			{
				OFFSET 0.015774 -0.398415 -0.042312
				CHANNELS 3 Zrotation Yrotation Xrotation
				JOINT RightToe
				{
					OFFSET -0.025372 -0.048144 0.123348
					CHANNELS 3 Zrotation Yrotation Xrotation
					End Site
					{
						OFFSET 0.000000 0.000000 0.000000
					}
				}
			}
		}
	}
	JOINT Spine
	{
		OFFSET -0.002533 0.108963 -0.026696
		CHANNELS 3 Zrotation Yrotation Xrotation
		JOINT Spine1
		{
			OFFSET 0.005487 0.135180 0.001092
			CHANNELS 3 Zrotation Yrotation Xrotation
			JOINT Spine2
			{
				OFFSET 0.001457 0.052922 0.025425
				CHANNELS 3 Zrotation Yrotation Xrotation
				JOINT Neck
				{
					OFFSET -0.002778 0.213870 -0.042857
					CHANNELS 3 Zrotation Yrotation Xrotation
					JOINT Head
					{
						OFFSET 0.005152 0.064970 0.051349
						CHANNELS 3 Zrotation Yrotation Xrotation
						End Site
						{
							OFFSET 0.000000 0.000000 0.000000
						}
					}
				}
				JOINT LeftShoulder
				{
					OFFSET 0.078845 0.121749 -0.034090
					CHANNELS 3 Zrotation Yrotation Xrotation
					JOINT LeftArm
					{
						OFFSET 0.090977 0.030469 -0.008868
						CHANNELS 3 Zrotation Yrotation Xrotation
						JOINT LeftForeArm
						{
							OFFSET 0.259612 -0.012772 -0.027456
							CHANNELS 3 Zrotation Yrotation Xrotation
							JOINT LeftHand
							{
								OFFSET 0.249234 0.008986 -0.001171
								CHANNELS 3 Zrotation Yrotation Xrotation
								End Site
								{
									OFFSET 0.000000 0.000000 0.000000
								}
							}
						}
					}
				}
				JOINT RightShoulder
				{
					OFFSET -0.081759 0.118833 -0.038615
					CHANNELS 3 Zrotation Yrotation Xrotation
					JOINT RightArm
					{
						OFFSET -0.096012 0.032551 -0.009143
						CHANNELS 3 Zrotation Yrotation Xrotation
						JOINT RightForeArm
						{
							OFFSET -0.253742 -0.013329 -0.021401
							CHANNELS 3 Zrotation Yrotation Xrotation
							JOINT RightHand
							{
								OFFSET -0.255298 0.007772 -0.005559
								CHANNELS 3 Zrotation Yrotation Xrotation
								End Site
								{
									OFFSET 0.000000 0.000000 0.000000
								}
							}
						}
					}
				}
			}
		}
	}
}
MOTION
Frames: 17
Frame Time: 0.050000
0.010820 0.932654 -0.061019 -0.508878 -1.116448 -2.333183 5.221872 0.110862 2.774890 1.002000 0.085116 -4.606056 2.652291 8.226346 9.273410 0.000000 0.000000 0.000000 -7.247149 0.211105 -1.855571 2.831170 -0.260986 2.292210 -2.546291 -9.098234 8.524440 0.000000 0.000000 0.000000 -3.200364 0.027332 -1.918144 0.603012 -0.428187 4.512120 2.862131 -2.231229 2.655294 1.701794 -1.408667 0.101024 0.000000 0.000000 0.000000 -16.634891 -10.597169 4.608706 -58.929018 -31.896715 9.784819 159.929628 -64.873309 -139.724314 0.000000 0.000000 0.000000 15.834537 21.223274 8.455692 45.297087 40.135746 11.075774 160.058113 75.772811 156.957454 0.000000 0.000000 0.000000 
0.010882 0.932935 -0.061582 -0.459159 -0.905650 -2.292566 5.386095 0.107158 2.877953 0.671688 0.121597 -4.918014 2.657489 8.300498 9.474616 0.000000 0.000000 0.000000 -7.010311 0.198913 -1.642922 2.630450 -0.245922 1.805468 -2.713717 -9.535708 8.993718 0.000000 0.000000 0.000000 -3.462078 0.023425 -1.946359 0.894968 -0.579896 4.292187 2.761576 -2.627732 2.914602 1.600219 -1.309101 -0.236099 0.000000 0.000000 0.000000 -16.411019 -10.857701 4.804267 -58.740183 -33.557557 10.676297 157.707827 -63.660081 -135.320374 0.000000 0.000000 0.000000 15.763684 21.637469 8.603411 45.080418 40.775171 11.245176 170.248938 76.957489 170.193436 0.000000 0.000000 0.000000 
0.011005 0.933182 -0.062093 -0.338304 -0.914633 -2.180002 5.280951 0.112576 2.953360 0.473095 0.144934 -5.167128 2.828846 8.641404 9.698086 0.000000 0.000000 0.000000 -7.037633 0.200843 -1.627026 2.578808 -0.244130 1.534917 -2.857568 -9.859891 9.151017 0.000000 0.000000 0.000000 -3.630967 0.021664 -1.899956 0.932368 -0.606174 4.489841 2.868019 -2.653716 2.629937 1.676225 -1.338605 -0.612106 0.000000 0.000000 0.000000 -16.337085 -11.582427 5.187447 -58.794116 -34.903993 11.501994 157.662739 -62.119826 -134.048389 0.000000 0.000000 0.000000 15.602865 21.648260 8.571395 46.133571 41.730061 12.008625 179.895872 77.613601 -177.657550 0.000000 0.000000 0.000000 
0.011188 0.933253 -0.062564 -0.255627 -0.872319 -2.141572 5.352184 0.117192 3.123389 0.246258 0.168748 -5.403844 2.912750 8.795428 9.737949 0.000000 0.000000 0.000000 -7.124571 0.195622 -1.475238 2.764090 -0.274079 1.044945 -3.009681 -10.208082 9.364686 0.000000 0.000000 0.000000 -3.897493 0.018619 -1.986280 1.013095 -0.654584 4.624793 2.942412 -2.908074 2.764884 1.424622 -1.132751 -0.765050 0.000000 0.000000 0.000000 -16.123340 -11.839236 5.369959 -59.096800 -36.278622 12.398884 157.081058 -61.264333 -132.269631 0.000000 0.000000 0.000000 15.401485 21.969733 8.660167 46.774302 42.643377 12.595231 -171.322929 77.879882 -166.835944 0.000000 0.000000 0.000000 
0.011427 0.933161 -0.063073 -0.103503 -0.796369 -2.110888 5.183208 0.125393 3.212278 0.228575 0.176802 -5.593867 2.837533 8.661017 9.683505 0.000000 0.000000 0.000000 -7.266575 0.190806 -1.327166 2.889857 -0.293596 0.716150 -3.133539 -10.449940 9.383839 0.000000 0.000000 0.000000 -4.014215 0.017198 -2.027258 1.082655 -0.701593 4.862511 2.764221 -2.929872 2.589436 1.725773 -1.357508 -0.931431 0.000000 0.000000 0.000000 -16.193636 -12.176103 5.535284 -59.632767 -37.109457 13.072369 158.334178 -60.662426 -133.769845 0.000000 0.000000 0.000000 15.788053 22.088806 8.764844 47.419186 43.251375 13.115037 -168.121790 77.906036 -162.857081 0.000000 0.000000 0.000000 
0.011627 0.932848 -0.063616 -0.030872 -0.751011 -2.309743 5.082485 0.143860 3.485690 0.076015 0.188348 -5.650647 3.020904 8.900302 9.356555 0.000000 0.000000 0.000000 -7.430404 0.172914 -0.900502 3.160423 -0.326719 0.509004 -3.229233 -10.570501 9.093422 0.000000 0.000000 0.000000 -4.102667 0.011546 -1.812142 1.080190 -0.700758 4.845462 2.674253 -2.760386 2.720967 1.780017 -1.333470 -1.851157 0.000000 0.000000 0.000000 -15.715595 -12.417196 5.575147 -60.291616 -38.386721 14.057520 157.584667 -60.845241 -132.884170 0.000000 0.000000 0.000000 15.768614 22.171626 8.862055 48.427507 43.816954 13.717131 -166.447452 77.797648 -160.606600 0.000000 0.000000 0.000000 
0.011744 0.932905 -0.064212 -0.093418 -0.341820 -2.456586 5.121702 0.144514 3.624140 -0.008509 0.196080 -5.736063 2.944236 8.772449 9.216300 0.000000 0.000000 0.000000 -7.306467 0.144600 -0.443032 3.114708 -0.329322 0.145074 -3.358365 -10.722283 8.781106 0.000000 0.000000 0.000000 -4.187641 0.005804 -1.632113 1.189188 -0.765640 4.808987 2.563251 -2.782660 2.683127 2.021750 -1.456575 -2.648415 0.000000 0.000000 0.000000 -15.236723 -12.580576 5.568697 -60.831769 -39.395559 14.875617 156.623273 -60.764445 -131.500141 0.000000 0.000000 0.000000 15.948315 22.306981 9.004601 49.062987 43.699946 13.902572 -169.863752 76.943432 -164.482674 0.000000 0.000000 0.000000 
0.011795 0.932818 -0.064811 -0.069789 -0.070316 -2.554369 5.290899 0.141224 3.758808 -0.342461 0.215266 -5.720263 3.045768 8.937755 9.097387 0.000000 0.000000 0.000000 -7.312430 0.127104 -0.155885 3.119072 -0.335060 -0.106816 -3.214692 -10.344310 8.460546 0.000000 0.000000 0.000000 -4.239534 0.001596 -1.389006 1.211054 -0.784660 4.849602 2.508162 -2.608461 2.485011 2.324927 -1.640093 -3.105948 0.000000 0.000000 0.000000 -15.123128 -12.921395 5.656156 -60.965005 -40.049773 15.337718 155.749814 -61.153231 -130.763167 0.000000 0.000000 0.000000 15.963712 22.157689 9.004894 49.713625 43.812487 14.212078 -172.487193 76.510337 -167.543979 0.000000 0.000000 0.000000 
0.011856 0.932575 -0.065431 -0.145357 0.183210 -2.550534 5.435162 0.130586 3.741938 -0.537542 0.226210 -5.707553 2.988136 8.860626 9.096272 0.000000 0.000000 0.000000 -7.238900 0.111609 0.103290 3.065448 -0.334088 -0.345323 -3.265490 -10.393165 8.316029 0.000000 0.000000 0.000000 -4.215638 0.001727 -1.539257 0.976565 -0.666258 4.921932 2.734157 -2.756994 2.385326 2.054563 -1.390167 -3.662135 0.000000 0.000000 0.000000 -14.865484 -12.779945 5.577894 -61.362612 -40.208886 15.597308 154.861544 -61.803491 -129.948592 0.000000 0.000000 0.000000 15.495717 22.185081 8.950890 50.882006 43.927802 14.687172 -176.698362 76.031415 -172.920011 0.000000 0.000000 0.000000 
0.012018 0.932143 -0.066130 -0.236088 0.259377 -2.698745 5.496305 0.131722 3.813464 -0.620850 0.226244 -5.542601 3.103458 9.085546 9.192118 0.000000 0.000000 0.000000 -7.219351 0.100549 0.270133 3.072398 -0.334743 -0.266519 -3.264448 -10.364818 8.216479 0.000000 0.000000 0.000000 -4.241035 -0.001608 -1.403360 0.887727 -0.620876 4.934980 2.929548 -2.670321 2.322336 2.129265 -1.428320 -3.851163 0.000000 0.000000 0.000000 -14.834393 -12.662454 5.496296 -61.821135 -39.968218 15.605868 154.909155 -62.358682 -130.554171 0.000000 0.000000 0.000000 14.857479 21.952171 8.783099 52.031879 44.280767 15.276584 -178.459707 75.932319 -175.163741 0.000000 0.000000 0.000000 
0.012230 0.931662 -0.066992 -0.317607 0.225188 -2.870273 5.498071 0.137106 3.873015 -0.623989 0.217795 -5.231066 3.138295 9.069219 8.878296 0.000000 0.000000 0.000000 -7.262135 0.091735 0.454864 3.187636 -0.346049 -0.190074 -3.125990 -10.021713 7.925852 0.000000 0.000000 0.000000 -4.047709 -0.001649 -1.342545 0.646179 -0.489033 4.904044 2.941474 -2.478357 2.510114 2.228394 -1.476255 -4.143888 0.000000 0.000000 0.000000 -14.737472 -12.515287 5.378945 -62.685280 -39.234707 15.405125 156.262571 -63.270520 -133.383638 0.000000 0.000000 0.000000 14.449901 21.867612 8.747186 52.618154 44.646245 15.660598 -179.171389 76.109308 -175.960144 0.000000 0.000000 0.000000 
0.012453 0.931008 -0.067985 -0.379037 -0.036120 -3.106484 5.542757 0.149307 4.013639 -0.687666 0.216022 -4.993736 3.464093 9.600504 8.846361 0.000000 0.000000 0.000000 -7.382600 0.091418 0.549329 3.345744 -0.358882 0.021825 -2.916220 -9.555349 7.685011 0.000000 0.000000 0.000000 -3.887664 -0.003096 -1.179816 0.411076 -0.367752 5.215598 2.981230 -2.031614 2.294532 2.136419 -1.358578 -4.524858 0.000000 0.000000 0.000000 -14.676637 -12.649417 5.366020 -63.273294 -38.427314 15.084050 157.783689 -63.691393 -136.224938 0.000000 0.000000 0.000000 13.908709 21.878644 8.765483 53.397827 44.933597 16.130534 -177.899448 76.452905 -174.213485 0.000000 0.000000 0.000000 
0.012628 0.930387 -0.069034 -0.359921 -0.089489 -3.200491 5.504373 0.153217 4.017891 -0.791598 0.217003 -4.765712 3.625672 9.822155 8.623043 0.000000 0.000000 0.000000 -7.623666 0.095673 0.540926 3.599869 -0.383824 0.289723 -2.887543 -9.458073 7.506117 0.000000 0.000000 0.000000 -3.911623 -0.005013 -1.110378 0.341098 -0.328495 5.206562 2.915405 -1.906430 2.389825 2.037135 -1.298061 -4.329399 0.000000 0.000000 0.000000 -14.959362 -12.403259 5.237822 -63.785158 -37.083524 14.350985 161.741515 -64.024721 -142.434746 0.000000 0.000000 0.000000 13.754912 21.830559 8.753714 53.386637 44.852954 16.075583 -177.579594 76.312126 -173.705226 0.000000 0.000000 0.000000 
0.012714 0.929900 -0.070055 -0.221456 -0.422457 -3.235691 5.361919 0.168450 4.084350 -0.792267 0.216426 -4.708735 3.925250 10.328641 8.704663 0.000000 0.000000 0.000000 -7.896689 0.113751 0.352955 3.782172 -0.398797 0.583189 -2.682866 -9.039999 7.422750 0.000000 0.000000 0.000000 -3.839523 -0.003574 -1.116679 0.003045 -0.138685 5.238903 2.984356 -1.717052 2.545926 1.638717 -1.042145 -3.812311 0.000000 0.000000 0.000000 -15.570486 -12.116993 5.132627 -63.837785 -35.487358 13.299728 166.352383 -64.008007 -149.429555 0.000000 0.000000 0.000000 13.537156 21.475470 8.561095 53.739790 44.565391 16.039144 -178.536956 76.070147 -174.874818 0.000000 0.000000 0.000000 
0.012766 0.929299 -0.071059 -0.112552 -0.724291 -3.370325 5.197717 0.186798 4.188037 -0.763319 0.209458 -4.503620 4.166524 10.676953 8.484368 0.000000 0.000000 0.000000 -8.208028 0.129268 0.165285 3.888196 -0.405448 0.996420 -2.569196 -8.831553 7.431918 0.000000 0.000000 0.000000 -3.771433 -0.004187 -1.052412 -0.218724 -0.011992 5.244970 2.978771 -1.622485 2.872315 1.193619 -0.712873 -3.790757 0.000000 0.000000 0.000000 -15.811338 -11.602408 4.903169 -64.351473 -33.750919 12.291983 171.043279 -63.894512 -156.565053 0.000000 0.000000 0.000000 13.132509 21.283931 8.420470 54.253103 44.289867 16.045630 -178.401279 75.916334 -174.666663 0.000000 0.000000 0.000000 
0.012866 0.928994 -0.072103 -0.053310 -0.824770 -3.295604 4.949442 0.192886 4.104358 -0.547671 0.195817 -4.572845 4.298489 10.883216 8.428669 0.000000 0.000000 0.000000 -8.436784 0.143015 -0.049713 4.046868 -0.421223 1.246939 -2.511322 -8.757296 7.569279 0.000000 0.000000 0.000000 -3.707442 -0.001401 -1.148444 -0.374302 0.072896 5.327771 2.949910 -1.657311 2.891206 0.941310 -0.538251 -3.586666 0.000000 0.000000 0.000000 -16.042197 -11.256151 4.756265 -64.854224 -32.113327 11.369871 174.644127 -63.792006 -162.150658 0.000000 0.000000 0.000000 12.905392 20.720856 8.107791 55.130826 43.756660 16.077150 179.130706 75.489154 -177.889040 0.000000 0.000000 0.000000 
0.012977 0.929007 -0.073160 0.042762 -0.815411 -3.178953 4.815771 0.185713 3.891301 -0.440093 0.182231 -4.382946 4.307256 10.874476 8.310978 0.000000 0.000000 0.000000 -8.637778 0.159217 -0.473794 4.144886 -0.430647 1.708618 -2.556202 -8.854669 7.590586 0.000000 0.000000 0.000000 -3.762428 0.000415 -1.266386 -0.272553 0.022978 5.070991 2.794001 -1.697875 3.175275 0.843696 -0.469388 -3.551353 0.000000 0.000000 0.000000 -16.362276 -10.713812 4.502332 -65.524525 -30.899264 10.719549 177.069417 -64.273431 -166.051145 0.000000 0.000000 0.000000 12.943242 20.435102 7.978714 55.179207 42.848598 15.578977 179.188392 75.119440 -177.749325 0.000000 0.000000 0.000000 
